<svg xmlns="http://www.w3.org/2000/svg" width="238" height="46" viewBox="0 0 238 46"><g fill="#FFF"><path d="M9.134 40.324a.496.496 0 0 1-.208-.047c-.25-.114-.64.297-.524.047l5.41-11.844a.495.495 0 0 1 .266-.254l2.362-.955a.5.5 0 0 1 .375.927l-2.18.882L9.59 40.032a.5.5 0 0 1-.456.29z"/><path d="M16.578 28.278l-.278-.695L67.516 6.568 11.924 22.464l-.212-.72 59.904-16.59z"/><path d="M50.94 30.41a.5.5 0 0 1-.326-.88L83.59 1H15.18L1.322 13.47l11.15 8.124a.552.552 0 0 1 .1.098l4.45 5.736a.502.502 0 0 1-.79.614l-4.406-5.68-11.59-8.448a.5.5 0 0 1-.04-.775L14.652.126A.497.497 0 0 1 14.987 0H85c.21 0 .336.13.41.325a.5.5 0 0 1-.144.553l-34 29.41a.497.497 0 0 1-.327.12zM8.547 40.01L5.78 45.998h27.503L40 40"/><path d="M63.917 40V19.103L51.904 29.66l-6.29-10.875H40V40h4.672V26.37l5.102 9.366h4.5l4.97-9.28V40h4.673zm173.97-.042V18.785h-4.803v8.186H222.67v-8.185h-4.842v21.173h4.843v-8.616h10.414v8.616h4.803zm-71.75-9.474c-.17 3.215-.343 4.115-.814 4.758-.514.557-1.113.9-2.014.9-.344 0-1.03-.043-1.03-.043v4.07c.515.044 1.457.128 2.058.128 1.76 0 3.3-.256 4.287-1.156.985-.898 2.015-2.057 2.27-6.386.09-1.586.388-9.6.388-9.6h8.36V40h4.84V18.785H166.44c-.045 1.5-.13 8.613-.303 11.7zm-35.53 3.816V18.913c-.773-.128-3.814-.557-8.316-.557-8.484 0-12.942 4.757-12.942 11.873 0 3.47.9 5.956 2.444 7.67 1.755 1.93 4.456 2.7 6.556 2.7 5.53 0 7.5-3.386 7.5-3.386l.172.086s-.043.214-.043.556c0 2.188 2.23 2.7 4.156 2.7 2.102 0 3.258-.172 3.258-.172v-4.112c-.257.04-.47.04-.942.04-.984 0-1.84-.17-1.84-2.012zm-4.843-3.902c0 2.83-2.7 5.916-6.172 5.916-1.972 0-3.215-.857-4.114-1.973-.643-.94-1.115-2.526-1.115-4.284 0-2.23.643-4.37 2.014-5.7 1.073-1.072 3.128-1.843 5.744-1.843 1.715 0 3.644.343 3.644.343v7.542zM93.36 18.785V40h4.887V23.156h9.343v-4.37H93.36zm44.92 0V40h4.84V23.156h10.545V40h4.888V18.785H138.28zm-59.192-.558c-3.043 0-5.27.73-7.372 2.7-2.186 2.015-3.386 4.886-3.386 8.53 0 3.257 1.114 6.258 3.043 8.1 2.1 2.058 5.358 3.086 9.687 3.086 2.27 0 4.5-.387 6.258-.94v-3.815c-.986.17-3.515.6-6.215.6-2.53 0-4.372-.387-5.572-1.328-.898-.686-1.927-1.758-2.27-3.77h15.215c.17-.944.256-2.358.256-3.9 0-5.32-3.64-9.263-9.642-9.263zm-5.743 9.085c.258-1.543.857-2.83 1.758-3.73.857-.856 2.27-1.37 3.943-1.37 1.63 0 2.7.514 3.6 1.37.815.9 1.2 2.4 1.2 3.73h-10.5zM210.11 34.3V18.913c-.77-.128-3.812-.557-8.313-.557-8.486 0-12.943 4.757-12.943 11.873 0 3.47.9 5.956 2.444 7.67 1.757 1.93 4.456 2.7 6.558 2.7 5.528 0 7.5-3.386 7.5-3.386l.172.086s-.043.214-.043.556c0 2.188 2.23 2.7 4.156 2.7 2.103 0 3.26-.172 3.26-.172v-4.112c-.26.04-.472.04-.943.04-.988 0-1.846-.17-1.846-2.012zm-4.84-3.902c0 2.83-2.7 5.916-6.17 5.916-1.974 0-3.217-.857-4.117-1.973-.644-.94-1.112-2.526-1.112-4.284 0-2.23.686-4.33 2.015-5.7 1.114-1.03 3.13-1.843 5.743-1.843 1.715 0 3.645.343 3.645.343v7.542h-.003z"/></g></svg>