<?xml version="1.0" encoding="utf-8"?>
<!-- Generator: Adobe Illustrator 21.0.2, SVG Export Plug-In . SVG Version: 6.00 Build 0)  -->
<svg version="1.1" id="Слой_1" xmlns="http://www.w3.org/2000/svg" xmlns:xlink="http://www.w3.org/1999/xlink" x="0px" y="0px"
	 viewBox="0 0 56.9 48.4" style="enable-background:new 0 0 56.9 48.4;" xml:space="preserve">
<style type="text/css">
	.st0{fill:#FFFFFF;}
</style>
<g>
	<path class="st0" d="M47.8,23.2l7.3-7.3c0.4-0.4,0.4-1,0-1.4c-0.4-0.4-1-0.4-1.4,0l-7.3,7.3l-7.3-7.3c-0.4-0.4-1-0.4-1.4,0
		c-0.4,0.4-0.4,1,0,1.4l7.3,7.3l-7.3,7.3c-0.4,0.4-0.4,1,0,1.4c0.2,0.2,0.5,0.3,0.7,0.3s0.5-0.1,0.7-0.3l7.3-7.3l7.3,7.3
		c0.2,0.2,0.5,0.3,0.7,0.3c0.3,0,0.5-0.1,0.7-0.3c0.4-0.4,0.4-1,0-1.4L47.8,23.2z"/>
	<path class="st0" d="M29.9,1.7c-1-0.6-2.1-0.5-3.1,0c0,0-0.1,0.1-0.1,0.1L13.1,13.2H2.5c-0.6,0-1,0.4-1,1v18.9
		c0,0.3,0.1,0.5,0.3,0.7c0.2,0.2,0.4,0.3,0.7,0.3l10.6,0l13.5,12.4c0,0,0.1,0.1,0.2,0.1c0.5,0.3,1,0.4,1.6,0.4c0.5,0,1-0.1,1.5-0.4
		c1-0.6,1.6-1.6,1.6-2.7V4.4C31.4,3.3,30.8,2.2,29.9,1.7z M29.4,44c0,0.4-0.2,0.8-0.6,1c-0.2,0.1-0.5,0.3-1,0L14.5,32.7v-4.5
		c0-0.6-0.4-1-1-1c-0.6,0-1,0.4-1,1v4l-9,0V15.2h9v4c0,0.6,0.4,1,1,1c0.6,0,1-0.4,1-1v-4.5L27.9,3.4c0.5-0.2,0.9-0.1,1,0
		c0.4,0.2,0.6,0.6,0.6,1V44z"/>
</g>
</svg>
