<?xml version="1.0" encoding="utf-8"?>
<!-- Generator: Adobe Illustrator 21.0.2, SVG Export Plug-In . SVG Version: 6.00 Build 0)  -->
<svg version="1.1" id="Слой_1" xmlns="http://www.w3.org/2000/svg" xmlns:xlink="http://www.w3.org/1999/xlink" x="0px" y="0px"
	 viewBox="0 0 56.9 48.4" style="enable-background:new 0 0 56.9 48.4;" xml:space="preserve">
<style type="text/css">
	.st0{fill:#FFFFFF;}
</style>
<g>
	<path class="st0" d="M29.9,1.7c-1-0.6-2.1-0.5-3.1,0c0,0-0.1,0.1-0.1,0.1L13.1,13.2H2.5c-0.6,0-1,0.4-1,1v18.9
		c0,0.3,0.1,0.5,0.3,0.7c0.2,0.2,0.4,0.3,0.7,0.3l10.6,0l13.5,12.4c0,0,0.1,0.1,0.2,0.1c0.5,0.3,1,0.4,1.6,0.4c0.5,0,1-0.1,1.5-0.4
		c1-0.6,1.6-1.6,1.6-2.7V4.4C31.4,3.3,30.8,2.2,29.9,1.7z M29.4,44c0,0.4-0.2,0.8-0.6,1c-0.2,0.1-0.5,0.3-1,0L14.5,32.7v-4.5
		c0-0.6-0.4-1-1-1c-0.6,0-1,0.4-1,1v4l-9,0V15.2h9v4c0,0.6,0.4,1,1,1c0.6,0,1-0.4,1-1v-4.5L27.9,3.4c0.5-0.2,0.9-0.1,1,0
		c0.4,0.2,0.6,0.6,0.6,1V44z"/>
</g>
<g>
	<path class="st0" d="M41.7,35.9c-0.1,0-0.2,0-0.2,0c-0.5-0.1-0.9-0.7-0.7-1.2c0.8-3.1,1.2-6.5,1.2-9.9c0-3.9-0.5-7.6-1.5-11
		c-0.1-0.5,0.2-1.1,0.7-1.2c0.5-0.1,1.1,0.2,1.2,0.7c1,3.6,1.5,7.5,1.5,11.5c0,3.6-0.4,7.1-1.2,10.4C42.5,35.6,42.1,35.9,41.7,35.9z
		"/>
</g>
<g>
	<path class="st0" d="M36.5,32.5c-0.1,0-0.2,0-0.2,0c-0.5-0.1-0.9-0.7-0.7-1.2c0.5-2.1,0.8-4.4,0.8-6.7c0-2.6-0.3-5.1-1-7.4
		c-0.1-0.5,0.2-1.1,0.7-1.2c0.5-0.1,1.1,0.2,1.2,0.7c0.7,2.5,1.1,5.2,1.1,8c0,2.5-0.3,4.9-0.9,7.2C37.3,32.2,36.9,32.5,36.5,32.5z"
		/>
</g>
<g>
	<path class="st0" d="M46.8,41.1c-0.1,0-0.2,0-0.2,0c-0.5-0.1-0.9-0.7-0.7-1.2c1.2-4.7,1.8-9.7,1.8-14.8c0-5.8-0.7-11.3-2.2-16.5
		c-0.1-0.5,0.2-1.1,0.7-1.2c0.5-0.1,1.1,0.2,1.2,0.7c1.5,5.3,2.3,11.1,2.3,17c0,5.3-0.6,10.5-1.8,15.3
		C47.6,40.8,47.2,41.1,46.8,41.1z"/>
</g>
</svg>
